<svg xmlns="http://www.w3.org/2000/svg" viewBox="0 0 89.63 114.34"><defs><style>.cls-1{fill:none;stroke:#eaecef;stroke-miterlimit:10;stroke-width:3px;}.cls-2{fill:#eaecef;}</style></defs><title>coif-logo-white-small</title><g id="Ebene_2" data-name="Ebene 2"><g id="Ebene_1-2" data-name="Ebene 1"><ellipse class="cls-1" cx="48.62" cy="57.14" rx="39.51" ry="47.03"/><path class="cls-2" d="M44,77.26v1.23H24.46V77.26h1.62a4.89,4.89,0,0,0,4.1-1.64c.54-.71.81-2.43.81-5.14V41.22a14.94,14.94,0,0,0-.44-4.54,3,3,0,0,0-1.38-1.43,6.34,6.34,0,0,0-3.09-.81H24.46V33.21H44v1.23H42.36a4.85,4.85,0,0,0-4.07,1.64c-.56.71-.84,2.43-.84,5.14V70.48A14.61,14.61,0,0,0,37.89,75a2.94,2.94,0,0,0,1.41,1.43,6.15,6.15,0,0,0,3.06.81Z"/><path class="cls-2" d="M55.31,35.68v17.8h8.31a6,6,0,0,0,4.19-1.25q1.32-1.26,1.76-5h1.25V62.6H69.57a8.87,8.87,0,0,0-.69-3.88,4.31,4.31,0,0,0-1.81-1.85,7.62,7.62,0,0,0-3.45-.62H55.31V70.48A14.61,14.61,0,0,0,55.75,75a2.94,2.94,0,0,0,1.41,1.43,6.37,6.37,0,0,0,3.09.81H61.9v1.23H42.32V77.26h1.62A4.89,4.89,0,0,0,48,75.62c.54-.71.81-2.43.81-5.14V41.22a14.94,14.94,0,0,0-.44-4.54A3,3,0,0,0,47,35.25a6.2,6.2,0,0,0-3.09-.81H42.32V33.21H76.27l.43,9.95H75.53a13.69,13.69,0,0,0-2-4.66,6.63,6.63,0,0,0-2.86-2.15,15.23,15.23,0,0,0-5.26-.67Z"/><path class="cls-2" d="M80.44,96c-8.28,9.81-19.67,15.88-32.22,15.88-25.26,0-45.8-24.56-45.8-54.75S23,2.42,48.22,2.42c12.63,0,24.08,6.14,32.38,16.07l1.56-1.88C73.44,6.35,61.44,0,48.22,0,21.63,0,0,25.65,0,57.17s21.63,57.17,48.22,57.17c13.14,0,25.08-6.28,33.78-16.43Z"/></g></g></svg>