<svg xmlns="http://www.w3.org/2000/svg" viewBox="0 0 445.99 175.08"><defs><style>.cls-1{fill:#0b0e11;}</style></defs><title>coif-logo-black</title><g id="Ebene_2" data-name="Ebene 2"><g id="Ebene_1-2" data-name="Ebene 1"><path class="cls-1" d="M11.06,137.85a3.29,3.29,0,0,0-2.2.81A6.34,6.34,0,0,0,7.3,141a15.17,15.17,0,0,0-.92,3.51,30.17,30.17,0,0,0-.3,4.41,24.37,24.37,0,0,0,.61,5.92,8.14,8.14,0,0,0,1.78,3.66,3.81,3.81,0,0,0,2.87,1.25,6.56,6.56,0,0,0,2.53-.5A18.13,18.13,0,0,0,16.25,158v5.37a10.47,10.47,0,0,1-2.66,1.14,11.55,11.55,0,0,1-3.06.39A8.34,8.34,0,0,1,5,163.06a11.64,11.64,0,0,1-3.47-5.48,27.8,27.8,0,0,1-1.2-8.73A29.09,29.09,0,0,1,1,142.37a17.66,17.66,0,0,1,2-5.14,10.09,10.09,0,0,1,3.23-3.38,8.1,8.1,0,0,1,4.39-1.2,12,12,0,0,1,3.34.47,11.52,11.52,0,0,1,3.1,1.46l-1.57,5a11,11,0,0,0-2.14-1.25A5.79,5.79,0,0,0,11.06,137.85Z"/><path class="cls-1" d="M36.24,152.41a23.53,23.53,0,0,1-.47,4.77,13.25,13.25,0,0,1-1.45,4,7.62,7.62,0,0,1-2.59,2.75,7.21,7.21,0,0,1-3.9,1,6.83,6.83,0,0,1-3.71-1,7.79,7.79,0,0,1-2.59-2.72,13.42,13.42,0,0,1-1.52-4,22,22,0,0,1-.5-4.83,21.7,21.7,0,0,1,.87-6.43,9.26,9.26,0,0,1,2.73-4.4,7.18,7.18,0,0,1,4.8-1.59,7.09,7.09,0,0,1,4.41,1.44,9.27,9.27,0,0,1,2.9,4.21A19.62,19.62,0,0,1,36.24,152.41Zm-11.43.09a23.42,23.42,0,0,0,.32,4.19,6,6,0,0,0,1,2.55,2.21,2.21,0,0,0,3.48,0,5.91,5.91,0,0,0,1-2.57,25.4,25.4,0,0,0,.31-4.28,24.42,24.42,0,0,0-.31-4.21,5.67,5.67,0,0,0-1-2.51,2.11,2.11,0,0,0-1.74-.84,2.45,2.45,0,0,0-2.33,1.87A16.89,16.89,0,0,0,24.81,152.5Z"/><path class="cls-1" d="M60,140a4.67,4.67,0,0,1,4.19,2.14q1.38,2.15,1.38,6.54v15.84H60.31V150.35a10.8,10.8,0,0,0-.54-4,1.77,1.77,0,0,0-1.64-1.28A2.21,2.21,0,0,0,56,146.89a17.89,17.89,0,0,0-.61,5.44v12.18H50.1V150.29a15.57,15.57,0,0,0-.23-2.93,3.93,3.93,0,0,0-.68-1.69,1.49,1.49,0,0,0-1.19-.56,2,2,0,0,0-1.74.9,6.29,6.29,0,0,0-.86,2.65,31.11,31.11,0,0,0-.25,4.35v11.5H39.93V140.45h4.14l.55,3.07H45a5.9,5.9,0,0,1,1.16-1.92,4.86,4.86,0,0,1,1.73-1.2,5.89,5.89,0,0,1,2.22-.41,4.42,4.42,0,0,1,3,1,5.31,5.31,0,0,1,1.59,2.46h.38A6.12,6.12,0,0,1,57,140.88,4.84,4.84,0,0,1,60,140Z"/><path class="cls-1" d="M90,140a4.66,4.66,0,0,1,4.19,2.14q1.38,2.15,1.38,6.54v15.84H90.35V150.35a10.8,10.8,0,0,0-.54-4,1.77,1.77,0,0,0-1.64-1.28A2.23,2.23,0,0,0,86,146.89a17.89,17.89,0,0,0-.61,5.44v12.18H80.14V150.29a15.57,15.57,0,0,0-.23-2.93,3.93,3.93,0,0,0-.68-1.69,1.49,1.49,0,0,0-1.19-.56,2,2,0,0,0-1.74.9,6.29,6.29,0,0,0-.86,2.65,31.11,31.11,0,0,0-.25,4.35v11.5H70V140.45h4.14l.55,3.07H75a5.71,5.71,0,0,1,1.15-1.92,4.86,4.86,0,0,1,1.73-1.2A5.89,5.89,0,0,1,80.1,140a4.42,4.42,0,0,1,3,1,5.31,5.31,0,0,1,1.59,2.46h.38A6.12,6.12,0,0,1,87,140.88,4.84,4.84,0,0,1,90,140Z"/><path class="cls-1" d="M115.64,140.45v24.06h-4.1l-.59-3.07h-.3a6.67,6.67,0,0,1-1.2,1.93,4.6,4.6,0,0,1-1.62,1.17,4.9,4.9,0,0,1-2,.4,5,5,0,0,1-3.24-1.05,6.37,6.37,0,0,1-1.94-3,15.24,15.24,0,0,1-.65-4.72v-15.7h5.22v14a12.82,12.82,0,0,0,.49,4.06c.33.91.86,1.36,1.59,1.36a2.4,2.4,0,0,0,2-.84,5.2,5.2,0,0,0,.91-2.45,26.81,26.81,0,0,0,.25-3.89V140.45Z"/><path class="cls-1" d="M130,140a4.88,4.88,0,0,1,4.29,2.21,11.34,11.34,0,0,1,1.5,6.39v15.92H130.6V150.24a12,12,0,0,0-.47-3.83,1.76,1.76,0,0,0-1.79-1.3,2.34,2.34,0,0,0-2.3,1.76,19.29,19.29,0,0,0-.66,6.06v11.58h-5.22V140.45h4.14l.55,3.07h.33a7,7,0,0,1,1.2-1.92,4.76,4.76,0,0,1,1.63-1.2A5,5,0,0,1,130,140Z"/><path class="cls-1" d="M143,131a2.61,2.61,0,0,1,2.16.85,3.83,3.83,0,0,1,.69,2.46,3.55,3.55,0,0,1-.72,2.4,2.67,2.67,0,0,1-2.13.82,2.71,2.71,0,0,1-2.12-.82,3.45,3.45,0,0,1-.75-2.4,3.8,3.8,0,0,1,.7-2.48A2.7,2.7,0,0,1,143,131Zm2.61,9.48v24.06h-5.22V140.45Z"/><path class="cls-1" d="M157.46,159.93a4.5,4.5,0,0,0,1.17-.16,6.55,6.55,0,0,0,1.29-.5v4.57a7.19,7.19,0,0,1-1.9.82,8.64,8.64,0,0,1-2.19.28,5.28,5.28,0,0,1-3.07-.83A4.75,4.75,0,0,1,151,161.6a13.93,13.93,0,0,1-.55-4.27V145.19h-2.16v-3.07l2.57-1.5,1.24-5.24h3.57v5.07h3.95v4.74h-3.95v11.93a4.3,4.3,0,0,0,.41,2.11A1.42,1.42,0,0,0,157.46,159.93Z"/><path class="cls-1" d="M160.72,140.45h5.48l2.57,11.64c.12.53.23,1.06.34,1.6s.19,1.06.26,1.56.13,1,.17,1.42h.15c.07-.59.17-1.25.3-2s.3-1.58.51-2.53l2.41-11.7h5.42l-6.55,26.4a20.07,20.07,0,0,1-1.72,4.77,6.9,6.9,0,0,1-2.33,2.63,5.86,5.86,0,0,1-3.14.83,7.53,7.53,0,0,1-1.28-.11c-.4-.07-.81-.16-1.21-.26v-5.05a7.1,7.1,0,0,0,.79.22,3.59,3.59,0,0,0,.78.09,2.24,2.24,0,0,0,1.3-.35,2.86,2.86,0,0,0,.9-1.27,20,20,0,0,0,.84-2.66l.33-1.44Z"/><path class="cls-1" d="M188.23,164.51V133.1h5.52v31.41Z"/><path class="cls-1" d="M208.45,140a4.88,4.88,0,0,1,4.29,2.21,11.34,11.34,0,0,1,1.51,6.39v15.92H209V150.24a11.7,11.7,0,0,0-.47-3.83,1.76,1.76,0,0,0-1.79-1.3,2.36,2.36,0,0,0-2.3,1.76,19.29,19.29,0,0,0-.66,6.06v11.58h-5.22V140.45h4.14l.55,3.07h.33a7,7,0,0,1,1.2-1.92,4.86,4.86,0,0,1,1.63-1.2A5,5,0,0,1,208.45,140Z"/><path class="cls-1" d="M222.53,164.51l-5.95-24.06H222l2.49,12.71c.19.84.34,1.67.46,2.52s.22,1.73.31,2.66h.16a19.23,19.23,0,0,1,.22-2.2c.13-.81.28-1.69.46-2.63l2.66-13.06h5.41l-6,24.06Z"/><path class="cls-1" d="M243.72,140a6.62,6.62,0,0,1,4.19,1.33,8.21,8.21,0,0,1,2.6,3.77,17,17,0,0,1,.88,5.77v3.22H240.91a8.57,8.57,0,0,0,1.06,4.65,3.51,3.51,0,0,0,3.12,1.5,8.48,8.48,0,0,0,2.64-.4,10.39,10.39,0,0,0,2.66-1.37v4.77a9.28,9.28,0,0,1-2.8,1.26,12.3,12.3,0,0,1-3.22.4,7.78,7.78,0,0,1-4.93-1.49,8.57,8.57,0,0,1-2.79-4.26,21.61,21.61,0,0,1-.88-6.56,22.74,22.74,0,0,1,.89-6.87,8.8,8.8,0,0,1,2.66-4.26A6.69,6.69,0,0,1,243.72,140Zm.12,4.49a2.33,2.33,0,0,0-2.07,1.28A8.86,8.86,0,0,0,241,150h5.6a11.84,11.84,0,0,0-.32-2.92,4.41,4.41,0,0,0-.92-1.88A2,2,0,0,0,243.84,144.53Z"/><path class="cls-1" d="M266.65,157.46a9.25,9.25,0,0,1-.83,4.12,5.71,5.71,0,0,1-2.42,2.51,8,8,0,0,1-3.8.85,13.53,13.53,0,0,1-3-.33,11.15,11.15,0,0,1-2.72-1V158a11.06,11.06,0,0,0,2.45,1.37,7.45,7.45,0,0,0,2.83.57,2.38,2.38,0,0,0,1.69-.56,2.16,2.16,0,0,0,.59-1.64,2.65,2.65,0,0,0-.24-1.12,3.24,3.24,0,0,0-.94-1.12,14.31,14.31,0,0,0-2.12-1.37,10.3,10.3,0,0,1-2.32-1.86,7.55,7.55,0,0,1-1.47-2.41,8.67,8.67,0,0,1-.51-3.07,6.8,6.8,0,0,1,1.81-5,6.62,6.62,0,0,1,4.94-1.83,9.45,9.45,0,0,1,3,.49,11.69,11.69,0,0,1,2.8,1.41l-1.44,4.4a11.64,11.64,0,0,0-2-1.16,5,5,0,0,0-2.12-.47,2,2,0,0,0-1.47.5,1.87,1.87,0,0,0-.51,1.39,2.25,2.25,0,0,0,.23,1.07,3.45,3.45,0,0,0,.93,1c.47.37,1.15.85,2.06,1.45a14.71,14.71,0,0,1,2.37,1.87,7.38,7.38,0,0,1,1.6,2.34A7.89,7.89,0,0,1,266.65,157.46Z"/><path class="cls-1" d="M277.33,159.93a4.5,4.5,0,0,0,1.17-.16,6.55,6.55,0,0,0,1.29-.5v4.57a7.19,7.19,0,0,1-1.9.82,8.64,8.64,0,0,1-2.19.28,5.28,5.28,0,0,1-3.07-.83,4.75,4.75,0,0,1-1.74-2.51,14.24,14.24,0,0,1-.55-4.27V145.19h-2.16v-3.07l2.57-1.5,1.24-5.24h3.58v5.07h3.94v4.74h-3.94v11.93a4.31,4.31,0,0,0,.4,2.11A1.43,1.43,0,0,0,277.33,159.93Z"/><path class="cls-1" d="M302.76,140a4.66,4.66,0,0,1,4.19,2.14c.92,1.43,1.39,3.61,1.39,6.54v15.84h-5.23V150.35a10.8,10.8,0,0,0-.54-4,1.76,1.76,0,0,0-1.64-1.28,2.23,2.23,0,0,0-2.16,1.78,18.21,18.21,0,0,0-.61,5.44v12.18H292.9V150.29a15.69,15.69,0,0,0-.22-2.93,3.81,3.81,0,0,0-.69-1.69,1.48,1.48,0,0,0-1.19-.56,2,2,0,0,0-1.74.9,6.29,6.29,0,0,0-.86,2.65A32.72,32.72,0,0,0,288,153v11.5h-5.22V140.45h4.14l.55,3.07h.34a5.73,5.73,0,0,1,1.16-1.92,4.82,4.82,0,0,1,1.72-1.2,5.89,5.89,0,0,1,2.22-.41,4.47,4.47,0,0,1,3,1,5.48,5.48,0,0,1,1.59,2.46h.37a6.2,6.2,0,0,1,1.93-2.55A4.88,4.88,0,0,1,302.76,140Z"/><path class="cls-1" d="M319.92,140a6.6,6.6,0,0,1,4.19,1.33,8.13,8.13,0,0,1,2.6,3.77,16.94,16.94,0,0,1,.89,5.77v3.22H317.11a8.57,8.57,0,0,0,1.06,4.65,3.51,3.51,0,0,0,3.12,1.5,8.59,8.59,0,0,0,2.65-.4,10.55,10.55,0,0,0,2.66-1.37v4.77a9.44,9.44,0,0,1-2.81,1.26,12.3,12.3,0,0,1-3.22.4,7.78,7.78,0,0,1-4.93-1.49,8.57,8.57,0,0,1-2.79-4.26,21.61,21.61,0,0,1-.88-6.56,23.06,23.06,0,0,1,.89-6.87,8.87,8.87,0,0,1,2.66-4.26A6.71,6.71,0,0,1,319.92,140Zm.12,4.49a2.32,2.32,0,0,0-2.06,1.28,8.84,8.84,0,0,0-.83,4.17h5.6a11.84,11.84,0,0,0-.32-2.92,4.3,4.3,0,0,0-.92-1.88A2,2,0,0,0,320,144.53Z"/><path class="cls-1" d="M341,140a4.88,4.88,0,0,1,4.29,2.21,11.34,11.34,0,0,1,1.5,6.39v15.92H341.6V150.24a12,12,0,0,0-.47-3.83,1.77,1.77,0,0,0-1.79-1.3,2.36,2.36,0,0,0-2.31,1.76,19.29,19.29,0,0,0-.66,6.06v11.58h-5.22V140.45h4.14l.55,3.07h.34a6.54,6.54,0,0,1,1.2-1.92,4.82,4.82,0,0,1,1.62-1.2A5,5,0,0,1,341,140Z"/><path class="cls-1" d="M358.64,159.93a4.5,4.5,0,0,0,1.17-.16,6.25,6.25,0,0,0,1.28-.5v4.57a7,7,0,0,1-1.89.82,8.64,8.64,0,0,1-2.19.28,5.25,5.25,0,0,1-3.07-.83,4.75,4.75,0,0,1-1.74-2.51,13.93,13.93,0,0,1-.55-4.27V145.19h-2.16v-3.07l2.57-1.5,1.24-5.24h3.57v5.07h3.95v4.74h-3.95v11.93a4.3,4.3,0,0,0,.41,2.11A1.42,1.42,0,0,0,358.64,159.93Z"/><path class="cls-1" d="M377.08,164.51h-5.52V133.1h12.82v5.13h-7.3v8.55h6.83v5.14h-6.83Z"/><path class="cls-1" d="M403.53,140.45v24.06h-4.11l-.59-3.07h-.29a6.89,6.89,0,0,1-1.2,1.93,4.6,4.6,0,0,1-1.62,1.17,5.46,5.46,0,0,1-5.27-.65,6.38,6.38,0,0,1-1.95-3,15.26,15.26,0,0,1-.64-4.72v-15.7h5.22v14a12.53,12.53,0,0,0,.49,4.06c.33.91.86,1.36,1.59,1.36a2.36,2.36,0,0,0,2-.84,5.2,5.2,0,0,0,.92-2.45,27,27,0,0,0,.24-3.89V140.45Z"/><path class="cls-1" d="M417.92,140a4.88,4.88,0,0,1,4.29,2.21,11.34,11.34,0,0,1,1.5,6.39v15.92h-5.22V150.24a12,12,0,0,0-.47-3.83,1.77,1.77,0,0,0-1.79-1.3,2.36,2.36,0,0,0-2.31,1.76,19.29,19.29,0,0,0-.66,6.06v11.58H408V140.45h4.14l.55,3.07h.34a6.54,6.54,0,0,1,1.2-1.92,4.76,4.76,0,0,1,1.63-1.2A4.93,4.93,0,0,1,417.92,140Z"/><path class="cls-1" d="M433.9,164.94q-3.18,0-4.85-3.31c-1.11-2.21-1.67-5.26-1.67-9.17s.56-7,1.67-9.18,2.67-3.29,4.67-3.29a4.61,4.61,0,0,1,1.9.39,5.06,5.06,0,0,1,1.61,1.17,7.37,7.37,0,0,1,1.28,2h.2c0-.93-.07-1.73-.11-2.4s-.05-1.22-.05-1.68v-8.36h5.23v33.43h-4.19l-.72-2.64h-.32a8.84,8.84,0,0,1-1.3,1.75,4.56,4.56,0,0,1-1.48,1A5.12,5.12,0,0,1,433.9,164.94Zm1.55-4.79a2.48,2.48,0,0,0,2.34-1.68,13.47,13.47,0,0,0,.76-5.26v-1.38a13.68,13.68,0,0,0-.73-5.21,2.47,2.47,0,0,0-2.37-1.64c-.94,0-1.64.63-2.09,1.88a17.29,17.29,0,0,0-.68,5.55,18,18,0,0,0,.71,5.82C433.86,159.51,434.55,160.15,435.45,160.15Z"/><path class="cls-1" d="M194.18,1.17l2.29,36.46h-2.29q-4.58-16.37-13.07-23.57a30.46,30.46,0,0,0-20.38-7.2,31.54,31.54,0,0,0-18,5.42q-8.06,5.42-12.67,17.28t-4.61,29.51q0,14.55,4.36,25.23a34.41,34.41,0,0,0,13.1,16.38,35.84,35.84,0,0,0,20,5.69,32.85,32.85,0,0,0,17.21-4.47q7.46-4.47,16.39-17.76l2.29,1.59q-7.53,14.31-17.58,21t-23.84,6.64q-24.89,0-38.55-19.77Q108.6,78.85,108.61,58.91a65.12,65.12,0,0,1,6.71-29.51,50.77,50.77,0,0,1,18.5-20.84,47.45,47.45,0,0,1,25.73-7.39A44.6,44.6,0,0,1,181,6.86q3.1,1.74,4.43,1.74a4.7,4.7,0,0,0,3.47-1.5,12.68,12.68,0,0,0,2.73-5.93Z"/><path class="cls-1" d="M260.81,1.17q19.5,0,33.78,15.86t14.29,39.59q0,24.43-14.4,40.58t-34.85,16.13q-20.67,0-34.74-15.74T210.83,56.85q0-25.54,16.24-41.68A46.18,46.18,0,0,1,260.81,1.17Zm-1.4,5.77a25.75,25.75,0,0,0-21.56,10.68q-10.11,13.29-10.11,38.92,0,26.26,10.48,40.42,8,10.76,21.26,10.76,14.1,0,23.3-11.79T292,58.75q0-27.52-10.11-41Q273.73,6.95,259.41,6.94Z"/><path class="cls-1" d="M362.89,108v2.93H320V108h3.54q6.21,0,9-3.87,1.77-2.53,1.77-12.18V22.6q0-8.14-1-10.76a7,7,0,0,0-3-3.4,13.33,13.33,0,0,0-6.8-1.89H320V3.62h42.9V6.55h-3.62q-6.13,0-8.93,3.87Q348.48,13,348.49,22.6V91.9q0,8.14,1,10.75a6.87,6.87,0,0,0,3.1,3.41,13,13,0,0,0,6.72,1.89Z"/><path class="cls-1" d="M399,9.47V51.63h18.23q6.28,0,9.2-3t3.87-11.75h2.74V73.23h-2.74q-.07-6.26-1.51-9.18a10,10,0,0,0-4-4.39q-2.55-1.45-7.57-1.46H399V91.9q0,8.14,1,10.75a6.87,6.87,0,0,0,3.1,3.41,13.3,13.3,0,0,0,6.79,1.89h3.62v2.93h-43V108h3.54q6.21,0,9-3.87,1.77-2.53,1.77-12.18V22.6q0-8.14-1-10.76a7,7,0,0,0-3-3.4,13,13,0,0,0-6.79-1.89h-3.54V3.62H445l1,23.57H443.4q-1.92-7.52-4.47-11a14.82,14.82,0,0,0-6.27-5.11q-3.74-1.58-11.56-1.58Z"/><path class="cls-1" d="M48.62,105.67c-22.61,0-41-21.77-41-48.53S26,8.61,48.62,8.61s41,21.77,41,48.53S71.23,105.67,48.62,105.67Zm0-94.06c-21,0-38,20.42-38,45.53s17.05,45.53,38,45.53,38-20.42,38-45.53S69.58,11.61,48.62,11.61Z"/><path class="cls-1" d="M44,77.26v1.23H24.46V77.26h1.62a4.89,4.89,0,0,0,4.1-1.64c.54-.71.81-2.43.81-5.14V41.22a14.94,14.94,0,0,0-.44-4.54,3,3,0,0,0-1.38-1.43,6.34,6.34,0,0,0-3.09-.81H24.46V33.21H44v1.23H42.36a4.85,4.85,0,0,0-4.07,1.64c-.56.71-.84,2.43-.84,5.14V70.48A14.61,14.61,0,0,0,37.89,75a3,3,0,0,0,1.41,1.43,6.15,6.15,0,0,0,3.06.81Z"/><path class="cls-1" d="M55.31,35.68v17.8h8.31a6,6,0,0,0,4.19-1.25q1.32-1.26,1.76-5h1.25V62.6H69.57a8.87,8.87,0,0,0-.69-3.88,4.31,4.31,0,0,0-1.81-1.85,7.62,7.62,0,0,0-3.45-.62H55.31V70.48A14.61,14.61,0,0,0,55.75,75a3,3,0,0,0,1.41,1.43,6.37,6.37,0,0,0,3.09.81H61.9v1.23H42.32V77.26h1.62A4.89,4.89,0,0,0,48,75.62c.54-.71.81-2.43.81-5.14V41.22a14.94,14.94,0,0,0-.44-4.54A3,3,0,0,0,47,35.25a6.2,6.2,0,0,0-3.09-.81H42.32V33.21H76.27l.43,9.95H75.53a13.69,13.69,0,0,0-2-4.66,6.63,6.63,0,0,0-2.86-2.15,15.23,15.23,0,0,0-5.26-.67Z"/><path class="cls-1" d="M80.44,96c-8.28,9.81-19.67,15.88-32.22,15.88-25.26,0-45.8-24.56-45.8-54.75S23,2.42,48.22,2.42c12.63,0,24.08,6.14,32.38,16.07l1.56-1.88C73.44,6.35,61.44,0,48.22,0,21.63,0,0,25.65,0,57.17s21.63,57.17,48.22,57.17c13.14,0,25.08-6.28,33.78-16.43Z"/></g></g></svg>